<svg xmlns="http://www.w3.org/2000/svg" xmlns:xlink="http://www.w3.org/1999/xlink" width="450" zoomAndPan="magnify" viewBox="0 0 337.5 60" height="80" preserveAspectRatio="xMidYMid meet" version="1.0"><defs><g/><clipPath id="16c91c7ef1"><path d="M 2 0.0429688 L 337 0.0429688 L 337 59.953125 L 2 59.953125 Z M 2 0.0429688 " clip-rule="nonzero"/></clipPath><clipPath id="b729cf6c99"><path d="M 0.875 0.0429688 L 334.222656 0.0429688 L 334.222656 59.953125 L 0.875 59.953125 Z M 0.875 0.0429688 " clip-rule="nonzero"/></clipPath><clipPath id="e34109a5db"><path d="M 75 0.0429688 L 98 0.0429688 L 98 58 L 75 58 Z M 75 0.0429688 " clip-rule="nonzero"/></clipPath><clipPath id="3ca12df698"><path d="M 149 0.0429688 L 193 0.0429688 L 193 59 L 149 59 Z M 149 0.0429688 " clip-rule="nonzero"/></clipPath><clipPath id="6e4f99feaa"><path d="M 193 0.0429688 L 225 0.0429688 L 225 58 L 193 58 Z M 193 0.0429688 " clip-rule="nonzero"/></clipPath><clipPath id="ac924f29d4"><path d="M 261 0.0429688 L 285 0.0429688 L 285 58 L 261 58 Z M 261 0.0429688 " clip-rule="nonzero"/></clipPath><clipPath id="8235c57b1f"><path d="M 286 0.0429688 L 333 0.0429688 L 333 58 L 286 58 Z M 286 0.0429688 " clip-rule="nonzero"/></clipPath><clipPath id="57cc334d5c"><rect x="0" width="335" y="0" height="60"/></clipPath><clipPath id="c6abbfba68"><path d="M 230.332031 4.183594 L 250.992188 4.183594 L 250.992188 20.253906 L 230.332031 20.253906 Z M 230.332031 4.183594 " clip-rule="nonzero"/></clipPath><clipPath id="e2b2d71cf8"><path d="M 234.210938 44.472656 L 247.984375 44.472656 L 247.984375 51 L 234.210938 51 Z M 234.210938 44.472656 " clip-rule="nonzero"/></clipPath><clipPath id="7101fff6fa"><rect x="0" width="335" y="0" height="60"/></clipPath></defs><g clip-path="url(#16c91c7ef1)"><g transform="matrix(1, 0, 0, 1, 2, 0.000000000000002109)"><g clip-path="url(#7101fff6fa)"><g clip-path="url(#b729cf6c99)"><g transform="matrix(1, 0, 0, 1, 0.000000000000000222, 0.000000000000002109)"><g clip-path="url(#57cc334d5c)"><g fill="#3a5949" fill-opacity="1"><g transform="translate(1.278832, 57.108607)"><g><path d="M 3.9375 -48.125 L 21.15625 -48.125 L 38.28125 -11.8125 L 35.90625 -11.8125 L 51.328125 -48.125 L 68.625 -48.125 L 68.875 -44.03125 L 63.625 -42.796875 C 63.5625 -42.035156 63.554688 -40.789062 63.609375 -39.0625 C 63.671875 -37.34375 63.726562 -35.144531 63.78125 -32.46875 L 64.28125 -18.125 C 64.382812 -15.820312 64.488281 -13.769531 64.59375 -11.96875 C 64.707031 -10.164062 64.804688 -8.691406 64.890625 -7.546875 C 64.972656 -6.398438 65.039062 -5.6875 65.09375 -5.40625 L 70.34375 -4.09375 L 70.09375 0 L 47.796875 0 L 47.546875 -4.09375 L 52.796875 -5.40625 C 52.847656 -5.6875 52.890625 -6.34375 52.921875 -7.375 C 52.953125 -8.414062 52.96875 -9.835938 52.96875 -11.640625 C 52.96875 -13.441406 52.9375 -15.570312 52.875 -18.03125 L 52.640625 -45.75 L 56.40625 -45.75 L 36.890625 0.25 L 31.734375 0.25 L 9.84375 -45.75 L 15 -45.75 L 15.078125 -17.546875 C 15.078125 -13.335938 15.101562 -10.34375 15.15625 -8.5625 C 15.21875 -6.789062 15.273438 -5.738281 15.328125 -5.40625 L 20.984375 -4.09375 L 20.75 0 L 2.78125 0 L 2.546875 -4.09375 L 8.28125 -5.40625 C 8.332031 -5.789062 8.367188 -6.554688 8.390625 -7.703125 C 8.421875 -8.847656 8.460938 -10.238281 8.515625 -11.875 C 8.578125 -13.519531 8.609375 -15.21875 8.609375 -16.96875 L 8.859375 -32.296875 C 8.910156 -35.191406 8.921875 -37.472656 8.890625 -39.140625 C 8.867188 -40.816406 8.859375 -42.007812 8.859375 -42.71875 L 3.6875 -44.03125 Z M 3.9375 -48.125 "/></g></g></g><g clip-path="url(#e34109a5db)"><g fill="#3a5949" fill-opacity="1"><g transform="translate(74.313356, 57.108607)"><g><path d="M 1.234375 0 L 0.984375 -3.859375 L 6.484375 -5.171875 C 6.535156 -5.390625 6.585938 -5.894531 6.640625 -6.6875 C 6.691406 -7.476562 6.742188 -8.457031 6.796875 -9.625 C 6.859375 -10.800781 6.890625 -12.046875 6.890625 -13.359375 L 6.96875 -19.515625 C 6.96875 -21.148438 6.910156 -22.609375 6.796875 -23.890625 C 6.691406 -25.179688 6.503906 -26.535156 6.234375 -27.953125 L 0.734375 -29.109375 L 0.734375 -32.796875 L 15.828125 -36.484375 L 18.03125 -35.09375 C 17.875 -33.34375 17.753906 -31.578125 17.671875 -29.796875 C 17.585938 -28.023438 17.546875 -26.019531 17.546875 -23.78125 L 17.546875 -13.453125 C 17.546875 -11.640625 17.585938 -9.914062 17.671875 -8.28125 C 17.753906 -6.644531 17.875 -5.609375 18.03125 -5.171875 L 23.453125 -3.859375 L 23.203125 0 Z M 12.375 -43.203125 C 10.132812 -43.203125 8.398438 -43.867188 7.171875 -45.203125 C 5.941406 -46.546875 5.328125 -48.09375 5.328125 -49.84375 C 5.328125 -51.59375 5.941406 -53.132812 7.171875 -54.46875 C 8.398438 -55.8125 10.132812 -56.484375 12.375 -56.484375 C 14.613281 -56.484375 16.320312 -55.8125 17.5 -54.46875 C 18.675781 -53.132812 19.265625 -51.59375 19.265625 -49.84375 C 19.265625 -48.09375 18.675781 -46.546875 17.5 -45.203125 C 16.320312 -43.867188 14.613281 -43.203125 12.375 -43.203125 Z M 12.375 -43.203125 "/></g></g></g></g><g fill="#3a5949" fill-opacity="1"><g transform="translate(98.740166, 57.108607)"><g><path d="M 1.5625 0 L 1.3125 -3.765625 L 6.390625 -5.171875 C 6.453125 -5.390625 6.507812 -5.878906 6.5625 -6.640625 C 6.613281 -7.398438 6.664062 -8.367188 6.71875 -9.546875 C 6.78125 -10.722656 6.8125 -11.992188 6.8125 -13.359375 L 6.890625 -19.59375 C 6.890625 -21.289062 6.832031 -22.753906 6.71875 -23.984375 C 6.613281 -25.210938 6.425781 -26.535156 6.15625 -27.953125 L 0.90625 -29.109375 L 0.90625 -32.796875 L 15.328125 -36.484375 L 17.625 -35.09375 L 17.140625 -30.25 L 17.375 -30.171875 C 19.070312 -32.359375 20.945312 -33.984375 23 -35.046875 C 25.050781 -36.109375 27.195312 -36.640625 29.4375 -36.640625 C 31.78125 -36.640625 33.878906 -36.066406 35.734375 -34.921875 C 37.597656 -33.773438 39.0625 -32.09375 40.125 -29.875 C 41.195312 -27.664062 41.734375 -25.003906 41.734375 -21.890625 L 41.734375 -13.453125 C 41.734375 -11.585938 41.757812 -9.847656 41.8125 -8.234375 C 41.863281 -6.628906 41.972656 -5.609375 42.140625 -5.171875 L 47.21875 -3.765625 L 46.984375 0 L 26.40625 0 L 26.15625 -3.765625 L 30.828125 -5.171875 C 30.929688 -5.710938 31.007812 -6.421875 31.0625 -7.296875 C 31.125 -8.171875 31.164062 -9.15625 31.1875 -10.25 C 31.21875 -11.34375 31.234375 -12.378906 31.234375 -13.359375 L 31.234375 -20.25 C 31.234375 -22.320312 30.914062 -24 30.28125 -25.28125 C 29.65625 -26.570312 28.835938 -27.515625 27.828125 -28.109375 C 26.816406 -28.710938 25.6875 -29.015625 24.4375 -29.015625 C 23.0625 -29.015625 21.773438 -28.710938 20.578125 -28.109375 C 19.378906 -27.515625 18.3125 -26.644531 17.375 -25.5 L 17.375 -13.453125 C 17.375 -11.585938 17.414062 -9.847656 17.5 -8.234375 C 17.582031 -6.628906 17.707031 -5.609375 17.875 -5.171875 L 22.796875 -3.765625 L 22.546875 0 Z M 1.5625 0 "/></g></g></g><g clip-path="url(#3ca12df698)"><g fill="#3a5949" fill-opacity="1"><g transform="translate(146.938033, 57.108607)"><g><path d="M 31.15625 1.0625 L 28.9375 -0.15625 L 29.015625 -5.5 L 28.78125 -5.578125 C 27.414062 -3.222656 25.882812 -1.566406 24.1875 -0.609375 C 22.488281 0.335938 20.738281 0.8125 18.9375 0.8125 C 16.039062 0.8125 13.363281 0.078125 10.90625 -1.390625 C 8.445312 -2.867188 6.476562 -4.929688 5 -7.578125 C 3.519531 -10.234375 2.78125 -13.3125 2.78125 -16.8125 C 2.78125 -19.863281 3.351562 -22.601562 4.5 -25.03125 C 5.65625 -27.46875 7.1875 -29.546875 9.09375 -31.265625 C 11.007812 -32.992188 13.140625 -34.304688 15.484375 -35.203125 C 17.835938 -36.109375 20.242188 -36.5625 22.703125 -36.5625 C 23.742188 -36.5625 24.8125 -36.460938 25.90625 -36.265625 C 27 -36.078125 27.898438 -35.796875 28.609375 -35.421875 C 28.609375 -36.453125 28.59375 -37.625 28.5625 -38.9375 C 28.539062 -40.25 28.515625 -41.535156 28.484375 -42.796875 C 28.460938 -44.054688 28.4375 -45.203125 28.40625 -46.234375 C 28.375 -47.273438 28.332031 -48.097656 28.28125 -48.703125 L 22.140625 -49.59375 L 21.96875 -53.125 L 37.625 -57.140625 L 39.84375 -55.75 C 39.675781 -52.363281 39.523438 -49.234375 39.390625 -46.359375 C 39.253906 -43.492188 39.1875 -40.472656 39.1875 -37.296875 L 39.109375 -18.28125 C 39.109375 -15.601562 39.175781 -13.429688 39.3125 -11.765625 C 39.445312 -10.097656 39.570312 -8.660156 39.6875 -7.453125 L 45.09375 -6.234375 L 45.09375 -2.703125 Z M 22.875 -7.125 C 23.75 -7.125 24.742188 -7.394531 25.859375 -7.9375 C 26.984375 -8.488281 27.925781 -9.394531 28.6875 -10.65625 L 28.6875 -28.859375 C 27.976562 -29.898438 27.101562 -30.625 26.0625 -31.03125 C 25.03125 -31.4375 23.992188 -31.640625 22.953125 -31.640625 C 20.390625 -31.640625 18.285156 -30.570312 16.640625 -28.4375 C 15.003906 -26.3125 14.1875 -23.390625 14.1875 -19.671875 C 14.1875 -15.628906 15.03125 -12.523438 16.71875 -10.359375 C 18.414062 -8.203125 20.46875 -7.125 22.875 -7.125 Z M 22.875 -7.125 "/></g></g></g></g><g clip-path="url(#6e4f99feaa)"><g fill="#3a5949" fill-opacity="1"><g transform="translate(192.922733, 57.108607)"><g><path d="M 24.4375 0 L 1.890625 0 L 1.640625 -3.765625 L 6.71875 -5.171875 C 6.78125 -6.148438 6.820312 -7.046875 6.84375 -7.859375 C 6.875 -8.679688 6.890625 -9.625 6.890625 -10.6875 C 6.890625 -11.757812 6.890625 -13.070312 6.890625 -14.625 C 6.890625 -16.1875 6.890625 -18.171875 6.890625 -20.578125 L 6.8125 -30.75 L 6.8125 -38.453125 C 6.8125 -42.054688 7.492188 -45.28125 8.859375 -48.125 C 10.222656 -50.96875 12.09375 -53.191406 14.46875 -54.796875 C 16.84375 -56.410156 19.507812 -57.21875 22.46875 -57.21875 C 25.195312 -57.21875 27.460938 -56.65625 29.265625 -55.53125 C 31.066406 -54.414062 31.96875 -52.957031 31.96875 -51.15625 C 31.96875 -50.007812 31.625 -49.117188 30.9375 -48.484375 C 30.257812 -47.859375 29.289062 -47.546875 28.03125 -47.546875 C 26.507812 -47.546875 24.953125 -48.257812 23.359375 -49.6875 L 18.609375 -54.03125 L 22.21875 -53.453125 C 20.632812 -53.453125 19.40625 -52.492188 18.53125 -50.578125 C 17.65625 -48.671875 17.21875 -45.859375 17.21875 -42.140625 L 17.21875 -35.90625 L 17.375 -30.75 L 17.46875 -20.75 C 17.46875 -18.007812 17.519531 -15.21875 17.625 -12.375 C 17.738281 -9.53125 17.847656 -7.128906 17.953125 -5.171875 L 24.671875 -3.765625 Z M 0.90625 -30.65625 L 0.90625 -34.4375 L 6.8125 -36.15625 L 11.640625 -35.828125 L 26.078125 -35.828125 L 26.078125 -30.65625 Z M 0.90625 -30.65625 "/></g></g></g></g><g fill="#3a5949" fill-opacity="1"><g transform="translate(219.980324, 57.108607)"><g><path d="M 21.0625 0.65625 C 17.507812 0.65625 14.40625 -0.109375 11.75 -1.640625 C 9.101562 -3.171875 7.039062 -5.316406 5.5625 -8.078125 C 4.09375 -10.835938 3.359375 -13.992188 3.359375 -17.546875 C 3.359375 -21.265625 4.164062 -24.488281 5.78125 -27.21875 C 7.394531 -29.945312 9.582031 -32.078125 12.34375 -33.609375 C 15.101562 -35.140625 18.117188 -35.90625 21.390625 -35.90625 C 24.785156 -35.90625 27.738281 -35.15625 30.25 -33.65625 C 32.769531 -32.15625 34.738281 -30.050781 36.15625 -27.34375 C 37.570312 -24.632812 38.28125 -21.476562 38.28125 -17.875 C 38.28125 -14.425781 37.515625 -11.296875 35.984375 -8.484375 C 34.460938 -5.671875 32.398438 -3.441406 29.796875 -1.796875 C 27.203125 -0.160156 24.289062 0.65625 21.0625 0.65625 Z M 21.890625 -3.203125 C 23.742188 -3.203125 25.351562 -3.757812 26.71875 -4.875 C 28.09375 -6 29.160156 -7.554688 29.921875 -9.546875 C 30.691406 -11.546875 31.078125 -13.828125 31.078125 -16.390625 C 31.078125 -21.097656 30.101562 -24.910156 28.15625 -27.828125 C 26.21875 -30.753906 23.664062 -32.21875 20.5 -32.21875 C 17.539062 -32.21875 15.171875 -31 13.390625 -28.5625 C 11.617188 -26.132812 10.734375 -22.875 10.734375 -18.78125 C 10.734375 -15.71875 11.210938 -13.007812 12.171875 -10.65625 C 13.128906 -8.300781 14.453125 -6.46875 16.140625 -5.15625 C 17.835938 -3.851562 19.753906 -3.203125 21.890625 -3.203125 Z M 21.890625 -3.203125 "/></g></g></g><g clip-path="url(#ac924f29d4)"><g fill="#3a5949" fill-opacity="1"><g transform="translate(261.6287, 57.108607)"><g><path d="M 1.3125 0 L 1.0625 -3.859375 L 6.390625 -5.171875 C 6.453125 -5.765625 6.519531 -6.8125 6.59375 -8.3125 C 6.675781 -9.820312 6.742188 -11.5625 6.796875 -13.53125 C 6.859375 -15.5 6.890625 -17.410156 6.890625 -19.265625 L 6.890625 -29.59375 C 6.890625 -31.507812 6.875 -33.394531 6.84375 -35.25 C 6.820312 -37.113281 6.796875 -38.90625 6.765625 -40.625 C 6.734375 -42.34375 6.691406 -43.898438 6.640625 -45.296875 C 6.585938 -46.691406 6.503906 -47.851562 6.390625 -48.78125 L 0.328125 -49.59375 L 0.15625 -53.125 L 15.828125 -57.140625 L 18.125 -55.75 C 18.007812 -53.457031 17.925781 -51.226562 17.875 -49.0625 C 17.820312 -46.90625 17.78125 -44.457031 17.75 -41.71875 C 17.71875 -38.988281 17.703125 -35.660156 17.703125 -31.734375 L 17.625 -19.671875 C 17.625 -15.847656 17.648438 -12.609375 17.703125 -9.953125 C 17.765625 -7.304688 17.847656 -5.710938 17.953125 -5.171875 L 23.28125 -3.859375 L 23.125 0 Z M 1.3125 0 "/></g></g></g></g><g clip-path="url(#8235c57b1f)"><g fill="#3a5949" fill-opacity="1"><g transform="translate(286.05551, 57.108607)"><g><path d="M 1.96875 0 L 1.71875 -3.765625 L 6.390625 -5.171875 C 6.503906 -5.878906 6.585938 -7 6.640625 -8.53125 C 6.691406 -10.0625 6.742188 -11.769531 6.796875 -13.65625 C 6.859375 -15.539062 6.890625 -17.359375 6.890625 -19.109375 L 6.890625 -29.59375 C 6.890625 -31.5625 6.875 -33.488281 6.84375 -35.375 C 6.820312 -37.257812 6.796875 -39.046875 6.765625 -40.734375 C 6.734375 -42.429688 6.691406 -43.976562 6.640625 -45.375 C 6.585938 -46.769531 6.535156 -47.90625 6.484375 -48.78125 L 0.40625 -49.59375 L 0.25 -53.125 L 15.734375 -57.140625 L 18.03125 -55.75 C 17.925781 -54.21875 17.84375 -52.6875 17.78125 -51.15625 C 17.726562 -49.625 17.675781 -47.984375 17.625 -46.234375 C 17.570312 -44.484375 17.546875 -42.429688 17.546875 -40.078125 C 17.546875 -37.734375 17.546875 -34.953125 17.546875 -31.734375 L 17.46875 -13.203125 C 17.46875 -11.992188 17.476562 -10.828125 17.5 -9.703125 C 17.53125 -8.585938 17.570312 -7.632812 17.625 -6.84375 C 17.675781 -6.050781 17.703125 -5.492188 17.703125 -5.171875 L 22.796875 -3.765625 L 22.546875 0 Z M 46.078125 0 L 32.21875 0 C 31.394531 -1.144531 30.640625 -2.140625 29.953125 -2.984375 C 29.273438 -3.835938 28.582031 -4.675781 27.875 -5.5 L 18.359375 -16.234375 L 16.3125 -16.234375 L 16.390625 -19.265625 L 18.859375 -19.84375 L 30.90625 -31.234375 L 25.5 -32.140625 L 25.75 -35.984375 L 43.9375 -35.984375 L 44.1875 -32.140625 L 38.78125 -31.15625 L 25.25 -19.84375 L 26.15625 -23.609375 L 38.703125 -9.265625 C 39.734375 -8.054688 40.644531 -7.039062 41.4375 -6.21875 C 42.226562 -5.40625 42.816406 -4.804688 43.203125 -4.421875 L 46.328125 -3.765625 Z M 46.078125 0 "/></g></g></g></g></g></g></g><g clip-path="url(#c6abbfba68)"><path fill="#f4bb92" d="M 230.84375 9.492188 C 230.332031 12.085938 233.070312 14.304688 234.667969 15.9375 C 236.261719 17.5625 238.484375 18.996094 240.355469 20.3125 C 240.796875 20.625 241.253906 20.933594 241.773438 21.074219 C 242.292969 21.214844 242.898438 21.164062 243.304688 20.808594 C 243.75 20.425781 243.863281 19.796875 244.007812 19.230469 C 244.707031 16.414062 246.804688 14.035156 248.628906 11.863281 C 249.550781 10.769531 251.636719 8.253906 249.105469 7.480469 C 246.972656 6.828125 244.710938 9.679688 243.597656 11.101562 C 243.480469 11.253906 243.359375 11.414062 243.238281 11.574219 C 243.484375 10.46875 243.703125 9.378906 243.964844 8.410156 C 244.347656 6.988281 245.105469 4.195312 242.527344 4.441406 C 240.394531 4.648438 239.9375 7.777344 239.511719 9.394531 C 239.320312 10.128906 239.070312 11.011719 238.851562 11.949219 C 237.597656 10.957031 236.363281 9.933594 235.085938 8.964844 C 233.675781 7.894531 231.347656 6.964844 230.84375 9.492188 " fill-opacity="1" fill-rule="nonzero"/></g><path fill="#3a5949" d="M 235.09375 45.203125 C 235.222656 45.898438 235.46875 46.550781 235.828125 47.160156 C 236.1875 47.769531 236.640625 48.300781 237.183594 48.75 C 237.730469 49.199219 238.335938 49.542969 239.003906 49.78125 C 239.667969 50.015625 240.355469 50.132812 241.0625 50.128906 C 241.757812 50.113281 242.429688 49.988281 243.078125 49.742188 C 243.730469 49.496094 244.320312 49.152344 244.847656 48.703125 C 245.378906 48.253906 245.820312 47.730469 246.167969 47.128906 C 246.515625 46.527344 246.753906 45.886719 246.882812 45.203125 Z M 235.09375 45.203125 " fill-opacity="1" fill-rule="nonzero"/><g clip-path="url(#e2b2d71cf8)"><path fill="#3a5949" d="M 240.988281 50.859375 C 240.199219 50.859375 239.4375 50.726562 238.695312 50.457031 C 237.957031 50.1875 237.285156 49.800781 236.679688 49.296875 C 236.074219 48.792969 235.574219 48.199219 235.179688 47.519531 C 234.785156 46.839844 234.515625 46.113281 234.375 45.339844 C 234.355469 45.230469 234.359375 45.125 234.386719 45.019531 C 234.414062 44.914062 234.460938 44.820312 234.53125 44.738281 C 234.601562 44.652344 234.683594 44.589844 234.785156 44.542969 C 234.882812 44.496094 234.984375 44.472656 235.09375 44.472656 L 246.882812 44.472656 C 246.988281 44.472656 247.09375 44.496094 247.191406 44.542969 C 247.289062 44.589844 247.375 44.652344 247.441406 44.738281 C 247.511719 44.820312 247.5625 44.914062 247.589844 45.019531 C 247.617188 45.125 247.621094 45.230469 247.601562 45.335938 C 247.457031 46.105469 247.191406 46.824219 246.800781 47.496094 C 246.410156 48.171875 245.914062 48.761719 245.320312 49.265625 C 244.726562 49.765625 244.0625 50.15625 243.335938 50.429688 C 242.605469 50.703125 241.851562 50.847656 241.070312 50.859375 Z M 236.050781 45.9375 C 236.242188 46.445312 236.503906 46.914062 236.839844 47.34375 C 237.171875 47.773438 237.5625 48.140625 238.007812 48.453125 C 238.457031 48.761719 238.941406 48.996094 239.457031 49.15625 C 239.976562 49.316406 240.507812 49.398438 241.054688 49.394531 C 241.585938 49.386719 242.105469 49.300781 242.613281 49.132812 C 243.121094 48.96875 243.589844 48.730469 244.027344 48.421875 C 244.460938 48.113281 244.839844 47.746094 245.164062 47.320312 C 245.488281 46.898438 245.742188 46.4375 245.925781 45.9375 Z M 236.050781 45.9375 " fill-opacity="1" fill-rule="nonzero"/></g></g></g></g></svg>